# xmcd
#
# Track frame offsets:
#	150
#	11003
#	22778
#	32095
#	42553
#	55426
#	68217
#	77482
#	89785
#	101558
#	110226
#	121279
#	136118
#	148091
#	157280
#	166274
#	179055
#	189860
#	201627
#	214207
#	224228
#	236310
#
# Disc length: 3332 seconds
#
# Revision: 1
# Processed by: cddbd v1.5.2PL0 Copyright (c) Steve Scherf et al.
# Submitted via: audiograbber 1.83.01
#
DISCID=520d0216
DTITLE=V-A - The Memphis Jukebox (Vol. 2)
DYEAR=2010
DGENRE=Blues
TTITLE0=Boyd Bennett and The Rockets - You Upset Me Baby
TTITLE1=Bill Haley and The Comets - Hot Dog Buddy Buddy
TTITLE2=The Jodimars - Well Now Dig This
TTITLE3=Eddie Fontaine - Cool It Baby
TTITLE4=Warren Smith - Rock 'n' Roll Ruby
TTITLE5=Carl Perkins - Boppin' The Blues
TTITLE6=Ricky Nelson - Waitin' In School
TTITLE7=Jerry Lee Lewis - Breathless
TTITLE8=Gene Vincent - Be-Bop-A-Lula
TTITLE9=Webb Pierce - I Ain't Never
TTITLE10=Marty Robbins - I Can't Quit
TTITLE11=Bo Diddley - I'm Bad
TTITLE12=Little Walter - My Babe
TTITLE13=The Drifters - Hyptonized
TTITLE14=Fats Domino - I Still Love You
TTITLE15=Ruth Brown - I Wanna Do More
TTITLE16=Piano Red - Rock, Baby
TTITLE17=The Spiders - Witchcraft
TTITLE18=Big Joe Turner - Flip Flop And Fly
TTITLE19=Eddie Bo - I'm Wise
TTITLE20=The Clovers - If I Could Be Loved By You
TTITLE21=The Moonglows - Most Of All
EXTD=
EXTT0=
EXTT1=
EXTT2=
EXTT3=
EXTT4=
EXTT5=
EXTT6=
EXTT7=
EXTT8=
EXTT9=
EXTT10=
EXTT11=
EXTT12=
EXTT13=
EXTT14=
EXTT15=
EXTT16=
EXTT17=
EXTT18=
EXTT19=
EXTT20=
EXTT21=
PLAYORDER=
